<?xml version="1.0" encoding="iso-8859-1"?>
<!-- Uploaded to: SVG Repo, www.svgrepo.com, Generator: SVG Repo Mixer Tools -->
<svg height="800px" width="800px" version="1.1" id="Layer_1" xmlns="http://www.w3.org/2000/svg" xmlns:xlink="http://www.w3.org/1999/xlink" 
	 viewBox="0 0 512 512" xml:space="preserve">
<path style="fill:#EDAB06;" d="M474.156,275.213h-19.489v-33.131c0-5.382,4.363-9.745,9.745-9.745l0,0
	c5.382,0,9.745,4.363,9.745,9.745V275.213z"/>
<path style="fill:#A67C52;" d="M438.503,265.471l-0.299,9.745l-0.91,29.234c-1.637,32.261-4.924,64.458-9.875,96.42l-14.227,72.76
	c-3.04,12.85-6.354,25.635-9.953,38.368H48.547c-3.586-12.733-6.912-25.518-9.953-38.368L24.38,400.87
	c-14.851-95.901-14.851-193.841,0-289.742l14.214-72.76c3.04-12.85,6.367-25.635,9.953-38.368H403.24
	c3.599,12.733,6.912,25.518,9.953,38.368l12.356,63.185l1.871,9.576C435.32,162.204,439.023,213.863,438.503,265.471z"/>
<path style="fill:#936841;" d="M88.067,400.872c-14.851-95.901-14.851-193.841,0-289.742l14.214-72.76
	c3.04-12.85,6.367-25.635,9.953-38.368c-21.228,0-42.454,0-63.682,0c-3.586,12.733-6.912,25.518-9.953,38.368l-14.214,72.76
	c-14.851,95.901-14.851,193.841,0,289.742l14.214,72.76c3.04,12.85,6.367,25.635,9.953,38.368c21.228,0,42.454,0,63.682,0
	c-3.586-12.733-6.912-25.518-9.953-38.368L88.067,400.872z"/>
<g>
	<path style="fill:#825836;" d="M65.973,411.678l-1.126-9.68c-11.275-96.878-11.275-195.118,0-291.995l1.126-9.68l19.358,2.253
		l-1.126,9.68c-11.101,95.382-11.101,192.107,0,287.489l1.126,9.68L65.973,411.678z"/>
	<path style="fill:#825836;" d="M102.636,511.999H82.731c-2.586-12.265-4.976-24.583-7.12-36.666l-1.702-9.602l19.191-3.391
		l1.702,9.589c2.222,12.538,4.716,25.336,7.406,38.043L102.636,511.999z"/>
	<path style="fill:#825836;" d="M102.636,0l-0.429,2.027c-2.69,12.707-5.184,25.505-7.406,38.043l-1.702,9.589l-19.191-3.391
		l1.702-9.602C77.755,24.583,80.146,12.265,82.731,0C82.731,0,102.636,0,102.636,0z"/>
	<path style="fill:#825836;" d="M377.891,46.268l-19.191,3.391l-1.702-9.589c-2.222-12.538-4.716-25.336-7.406-38.043L349.164,0
		h19.905c2.586,12.265,4.976,24.583,7.12,36.666L377.891,46.268z"/>
	<path style="fill:#825836;" d="M377.891,465.731l-1.702,9.602c-2.144,12.083-4.534,24.401-7.12,36.666h-19.905l0.429-2.027
		c2.69-12.707,5.184-25.505,7.406-38.043l1.702-9.589L377.891,465.731z"/>
	<path style="fill:#825836;" d="M385.84,411.677l-19.358-2.25l1.124-9.68c9.94-85.5,10.961-172.43,3.034-258.378l0,0
		c-0.494-5.36,3.45-10.105,8.809-10.598l0,0c5.36-0.494,10.105,3.45,10.598,8.808v0.001c8.049,87.29,7.012,175.581-3.082,262.419
		L385.84,411.677z"/>
	<path style="fill:#825836;" d="M165.838,322.006c-5.382,0.091-9.817-4.197-9.908-9.578l0,0
		c-1.142-67.315-0.23-135.185,2.708-201.728l0.43-9.736l19.47,0.86l-0.429,9.736c-2.922,66.148-3.826,133.618-2.692,200.538l0,0
		C175.507,317.479,171.219,321.915,165.838,322.006L165.838,322.006z"/>
	<path style="fill:#825836;" d="M159.067,411.037l-0.43-9.736c-0.839-19.028-1.523-38.41-2.031-57.608l0,0
		c-0.142-5.38,4.103-9.856,9.484-9.998l0,0c5.379-0.142,9.856,4.103,9.998,9.484l0,0c0.505,19.084,1.184,38.35,2.02,57.262
		l0.429,9.736L159.067,411.037z"/>
	<path style="fill:#825836;" d="M185.05,511.999h-19.554c-1.026-12.733-1.949-25.414-2.78-37.718l-0.65-9.719l19.45-1.299
		l0.65,9.719c0.832,12.46,1.78,25.323,2.819,38.238L185.05,511.999z"/>
	<path style="fill:#825836;" d="M185.05,0l-0.065,0.78c-1.039,12.915-1.988,25.778-2.819,38.238l-0.65,9.719l-19.45-1.299
		l0.65-9.719c0.832-12.304,1.754-24.985,2.78-37.718C165.496,0,185.05,0,185.05,0z"/>
	<path style="fill:#825836;" d="M289.734,47.437l-19.45,1.299l-0.65-9.719c-0.832-12.525-1.78-25.388-2.819-38.238L266.75,0h19.554
		c1.013,12.668,1.949,25.362,2.78,37.718L289.734,47.437z"/>
	<path style="fill:#825836;" d="M289.734,464.562l-0.65,9.719c-0.832,12.356-1.767,25.05-2.78,37.718H266.75l0.065-0.78
		c1.039-12.85,1.988-25.713,2.819-38.238l0.65-9.719L289.734,464.562z"/>
	<path style="fill:#825836;" d="M292.73,411.037l-19.47-0.86l0.429-9.736c4.234-95.844,4.234-193.038,0-288.882l-0.429-9.736
		l19.47-0.86l0.43,9.736c4.258,96.415,4.258,194.188,0,290.602L292.73,411.037z"/>
</g>
<g>
	<polygon style="fill:#FDBB00;" points="439.286,111.128 12.51,111.128 27.577,38.368 424.217,38.368 	"/>
	<polyline style="fill:#FDBB00;" points="152.603,473.631 424.217,473.631 439.286,400.87 12.51,400.87 27.577,473.631 
		120.121,473.631 	"/>
</g>
<g>
	<polygon style="fill:#EDAB06;" points="84.084,38.369 69.012,111.13 12.506,111.13 27.577,38.369 	"/>
	<polygon style="fill:#EDAB06;" points="84.084,473.632 27.577,473.632 12.506,400.872 69.012,400.872 	"/>
</g>
<g>
	<polygon style="fill:#F9D67D;" points="331.484,38.368 341.625,111.128 379.644,111.128 369.503,38.368 	"/>
	<polygon style="fill:#F9D67D;" points="331.484,473.631 369.503,473.631 379.644,400.87 341.625,400.87 	"/>
</g>
<path style="fill:#FDBB00;" d="M409.198,284.957L409.198,284.957c0,10.763,8.725,19.488,19.488,19.488h31.831v44.823h38.977v-48.717
	c0-19.376-15.707-35.083-35.083-35.083h-35.725C417.924,265.469,409.198,274.193,409.198,284.957z"/>
<path style="fill:#F9D67D;" d="M487.494,337.773L487.494,337.773c-3.109,0-5.63-2.521-5.63-5.63v-35.515
	c0-3.109,2.521-5.63,5.63-5.63l0,0c3.109,0,5.63,2.521,5.63,5.63v35.514C493.125,335.252,490.605,337.773,487.494,337.773z"/>
</svg>